<svg width="28" height="21" viewBox="0 0 28 21" fill="none" xmlns="http://www.w3.org/2000/svg">
<g clip-path="url(#clip0_3_58)">
<path d="M4.5 22V4C4.5 3.44772 4.94771 3 5.5 3H14.5C15.0523 3 15.5 3.44772 15.5 4V12.5M4.5 22H2M4.5 22H8M15.5 22V12.5M15.5 22H20M15.5 22H12M15.5 12.5H19C19.5523 12.5 20 12.9477 20 13.5V22M20 22H22M8 22V14.9429H12V22M8 22H12M11.5 6.5H12M8 11H8.5" stroke="#E1E1E4" stroke-opacity="0.5" stroke-width="2" stroke-linecap="round" stroke-linejoin="round"/>
</g>
<defs>
<clipPath id="clip0_3_58">
<rect width="28" height="21" fill="white"/>
</clipPath>
</defs>
</svg>
