<svg width="29" height="21" viewBox="0 0 29 21" fill="none" xmlns="http://www.w3.org/2000/svg">
<path d="M10.875 9.73214C10.5545 9.73214 10.2472 9.84503 10.0206 10.046C9.79396 10.2469 9.66666 10.5194 9.66666 10.8036V12.9464C9.66666 13.2306 9.79396 13.5031 10.0206 13.704C10.2472 13.905 10.5545 14.0179 10.875 14.0179C11.1955 14.0179 11.5028 13.905 11.7294 13.704C11.956 13.5031 12.0833 13.2306 12.0833 12.9464V10.8036C12.0833 10.5194 11.956 10.2469 11.7294 10.046C11.5028 9.84503 11.1955 9.73214 10.875 9.73214ZM25.375 10.8036C25.6955 10.8036 26.0028 10.6907 26.2294 10.4898C26.456 10.2888 26.5833 10.0163 26.5833 9.73214V5.44643C26.5833 5.16227 26.456 4.88975 26.2294 4.68881C26.0028 4.48788 25.6955 4.375 25.375 4.375H3.62499C3.30452 4.375 2.99718 4.48788 2.77057 4.68881C2.54396 4.88975 2.41666 5.16227 2.41666 5.44643V9.73214C2.41666 10.0163 2.54396 10.2888 2.77057 10.4898C2.99718 10.6907 3.30452 10.8036 3.62499 10.8036C3.94546 10.8036 4.2528 10.9165 4.47941 11.1174C4.70602 11.3183 4.83332 11.5908 4.83332 11.875C4.83332 12.1592 4.70602 12.4317 4.47941 12.6326C4.2528 12.8335 3.94546 12.9464 3.62499 12.9464C3.30452 12.9464 2.99718 13.0593 2.77057 13.2602C2.54396 13.4612 2.41666 13.7337 2.41666 14.0179V18.3036C2.41666 18.5877 2.54396 18.8603 2.77057 19.0612C2.99718 19.2621 3.30452 19.375 3.62499 19.375H25.375C25.6955 19.375 26.0028 19.2621 26.2294 19.0612C26.456 18.8603 26.5833 18.5877 26.5833 18.3036V14.0179C26.5833 13.7337 26.456 13.4612 26.2294 13.2602C26.0028 13.0593 25.6955 12.9464 25.375 12.9464C25.0545 12.9464 24.7472 12.8335 24.5206 12.6326C24.294 12.4317 24.1667 12.1592 24.1667 11.875C24.1667 11.5908 24.294 11.3183 24.5206 11.1174C24.7472 10.9165 25.0545 10.8036 25.375 10.8036ZM24.1667 8.85357C23.4668 9.07879 22.8622 9.4896 22.4349 10.0302C22.0076 10.5708 21.7784 11.2149 21.7784 11.875C21.7784 12.5351 22.0076 13.1792 22.4349 13.7198C22.8622 14.2604 23.4668 14.6712 24.1667 14.8964V17.2321H12.0833C12.0833 16.948 11.956 16.6755 11.7294 16.4745C11.5028 16.2736 11.1955 16.1607 10.875 16.1607C10.5545 16.1607 10.2472 16.2736 10.0206 16.4745C9.79396 16.6755 9.66666 16.948 9.66666 17.2321H4.83332V14.8964C5.53313 14.6712 6.13777 14.2604 6.56506 13.7198C6.99235 13.1792 7.22157 12.5351 7.22157 11.875C7.22157 11.2149 6.99235 10.5708 6.56506 10.0302C6.13777 9.4896 5.53313 9.07879 4.83332 8.85357V6.51786H9.66666C9.66666 6.80202 9.79396 7.07454 10.0206 7.27547C10.2472 7.4764 10.5545 7.58929 10.875 7.58929C11.1955 7.58929 11.5028 7.4764 11.7294 7.27547C11.956 7.07454 12.0833 6.80202 12.0833 6.51786H24.1667V8.85357Z" fill="#E1E1E4" fill-opacity="0.5"/>
</svg>
