<svg width="21" height="22" viewBox="0 0 21 22" fill="none" xmlns="http://www.w3.org/2000/svg">
<path d="M12.9723 19.606V15.2398C12.9723 14.5451 12.7089 13.8787 12.2401 13.3874C11.7712 12.8961 11.1354 12.6201 10.4723 12.6201C9.80927 12.6201 9.17338 12.8961 8.70454 13.3874C8.2357 13.8787 7.97231 14.5451 7.97231 15.2398V19.606H3.80564C3.36362 19.606 2.93969 19.422 2.62713 19.0945C2.31457 18.767 2.13898 18.3228 2.13898 17.8596V8.3692C2.13897 8.0676 2.2135 7.77115 2.3553 7.5087C2.49711 7.24626 2.70135 7.02676 2.94814 6.87159L9.61481 2.68004C9.87384 2.51718 10.1702 2.43115 10.4723 2.43115C10.7744 2.43115 11.0708 2.51718 11.3298 2.68004L17.9965 6.87159C18.2433 7.02676 18.4475 7.24626 18.5893 7.5087C18.7311 7.77115 18.8056 8.0676 18.8056 8.3692V17.8596C18.8056 18.3228 18.63 18.767 18.3175 19.0945C18.0049 19.422 17.581 19.606 17.139 19.606H12.9723Z" fill="white" fill-opacity="0.5"/>
</svg>
