<svg width="118" height="312" viewBox="0 0 79 208" fill="none" xmlns="http://www.w3.org/2000/svg">
<path d="M45.9616 186.834L39.5259 59.5H51.4779L45.9616 186.834Z" fill="black" stroke="#1A1A1A"/>
<path d="M30.5 126C30.5 163.555 105.555 176.5 68 176.5C30.4446 176.5 0 163.555 0 126C0 88.4446 30.4446 72 68 72C105.555 72 30.5 88.4446 30.5 126Z" fill="#C3BFDB"/>
<path d="M45.9546 194.536L43.5207 134.5H47.9828L45.9546 194.536Z" fill="black" stroke="#1A1A1A"/>
<path d="M31.2573 58.5L26.9716 52.5H63.4713L58.757 58.5H31.2573Z" fill="black" stroke="#1A1A1A"/>
<rect x="41.5" y="9.5" width="7" height="43" fill="black" stroke="#1A1A1A"/>
<path d="M51.5 7.5C51.5 11.399 48.5579 14.5 45 14.5C41.4421 14.5 38.5 11.399 38.5 7.5C38.5 3.60096 41.4421 0.5 45 0.5C48.5579 0.5 51.5 3.60096 51.5 7.5Z" fill="black" stroke="#1A1A1A"/>
</svg>
