<svg width="185" height="43" viewBox="0 0 185 43" fill="none" xmlns="http://www.w3.org/2000/svg">
<rect x="1" y="1" width="3" height="41" fill="black"/>
<rect x="0.856175" y="0.856175" width="3.28765" height="41.2877" stroke="black" stroke-opacity="0.6" stroke-width="0.287649"/>
<rect x="5.60254" y="1" width="2" height="41" fill="black"/>
<rect x="5.45871" y="0.856175" width="2.28765" height="41.2877" stroke="black" stroke-opacity="0.6" stroke-width="0.287649"/>
<rect x="10.2051" y="1" width="2" height="41" fill="black"/>
<rect x="10.0613" y="0.856175" width="2.28765" height="41.2877" stroke="black" stroke-opacity="0.6" stroke-width="0.287649"/>
<rect x="18.834" y="1" width="2" height="41" fill="black"/>
<rect x="18.6902" y="0.856175" width="2.28765" height="41.2877" stroke="black" stroke-opacity="0.6" stroke-width="0.287649"/>
<rect x="33.792" y="1" width="1" height="41" fill="black"/>
<rect x="33.6482" y="0.856175" width="1.28765" height="41.2877" stroke="black" stroke-opacity="0.6" stroke-width="0.287649"/>
<rect x="37.2441" y="1" width="1" height="41" fill="black"/>
<rect x="37.1003" y="0.856175" width="1.28765" height="41.2877" stroke="black" stroke-opacity="0.6" stroke-width="0.287649"/>
<rect x="40.1201" y="1" width="5" height="41" fill="black"/>
<rect x="39.9763" y="0.856175" width="5.28765" height="41.2877" stroke="black" stroke-opacity="0.6" stroke-width="0.287649"/>
<rect x="49.9004" y="1" width="3" height="41" fill="black"/>
<rect x="49.7566" y="0.856175" width="3.28765" height="41.2877" stroke="black" stroke-opacity="0.6" stroke-width="0.287649"/>
<rect x="55.0781" y="1" width="1" height="41" fill="black"/>
<rect x="54.9343" y="0.856175" width="1.28765" height="41.2877" stroke="black" stroke-opacity="0.6" stroke-width="0.287649"/>
<rect x="59.6807" y="1" width="5" height="41" fill="black"/>
<rect x="59.5368" y="0.856175" width="5.28765" height="41.2877" stroke="black" stroke-opacity="0.6" stroke-width="0.287649"/>
<rect x="66.584" y="1" width="3" height="41" fill="black"/>
<rect x="66.4402" y="0.856175" width="3.28765" height="41.2877" stroke="black" stroke-opacity="0.6" stroke-width="0.287649"/>
<rect x="72.9121" y="1" width="3" height="41" fill="black"/>
<rect x="72.7683" y="0.856175" width="3.28765" height="41.2877" stroke="black" stroke-opacity="0.6" stroke-width="0.287649"/>
<rect x="79.8159" y="1" width="4" height="41" fill="black"/>
<rect x="79.6721" y="0.856175" width="4.28765" height="41.2877" stroke="black" stroke-opacity="0.6" stroke-width="0.287649"/>
<rect x="86.144" y="1" width="1" height="41" fill="black"/>
<rect x="86.0002" y="0.856175" width="1.28765" height="41.2877" stroke="black" stroke-opacity="0.6" stroke-width="0.287649"/>
<rect x="90.7466" y="1" width="1" height="41" fill="black"/>
<rect x="90.6028" y="0.856175" width="1.28765" height="41.2877" stroke="black" stroke-opacity="0.6" stroke-width="0.287649"/>
<rect x="97.6504" y="1" width="1" height="41" fill="black"/>
<rect x="97.5066" y="0.856175" width="1.28765" height="41.2877" stroke="black" stroke-opacity="0.6" stroke-width="0.287649"/>
<rect x="101.102" y="1" width="3" height="41" fill="black"/>
<rect x="100.958" y="0.856175" width="3.28765" height="41.2877" stroke="black" stroke-opacity="0.6" stroke-width="0.287649"/>
<rect x="109.156" y="1" width="3" height="41" fill="black"/>
<rect x="109.012" y="0.856175" width="3.28765" height="41.2877" stroke="black" stroke-opacity="0.6" stroke-width="0.287649"/>
<rect x="115.484" y="1" width="5" height="41" fill="black"/>
<rect x="115.341" y="0.856175" width="5.28765" height="41.2877" stroke="black" stroke-opacity="0.6" stroke-width="0.287649"/>
<rect x="123.539" y="1" width="2" height="41" fill="black"/>
<rect x="123.395" y="0.856175" width="2.28765" height="41.2877" stroke="black" stroke-opacity="0.6" stroke-width="0.287649"/>
<rect x="126.99" y="1" width="2" height="41" fill="black"/>
<rect x="126.846" y="0.856175" width="2.28765" height="41.2877" stroke="black" stroke-opacity="0.6" stroke-width="0.287649"/>
<rect x="132.168" y="1" width="4" height="41" fill="black"/>
<rect x="132.024" y="0.856175" width="4.28765" height="41.2877" stroke="black" stroke-opacity="0.6" stroke-width="0.287649"/>
<rect x="138.497" y="1" width="3" height="41" fill="black"/>
<rect x="138.353" y="0.856175" width="3.28765" height="41.2877" stroke="black" stroke-opacity="0.6" stroke-width="0.287649"/>
<rect x="144.825" y="1" width="6" height="41" fill="black"/>
<rect x="144.681" y="0.856175" width="6.28765" height="41.2877" stroke="black" stroke-opacity="0.6" stroke-width="0.287649"/>
<rect x="153.454" y="1" width="1" height="41" fill="black"/>
<rect x="153.31" y="0.856175" width="1.28765" height="41.2877" stroke="black" stroke-opacity="0.6" stroke-width="0.287649"/>
<rect x="156.331" y="1" width="1" height="41" fill="black"/>
<rect x="156.187" y="0.856175" width="1.28765" height="41.2877" stroke="black" stroke-opacity="0.6" stroke-width="0.287649"/>
<rect x="163.234" y="1" width="3" height="41" fill="black"/>
<rect x="163.091" y="0.856175" width="3.28765" height="41.2877" stroke="black" stroke-opacity="0.6" stroke-width="0.287649"/>
<rect x="171.288" y="1" width="5" height="41" fill="black"/>
<rect x="171.144" y="0.856175" width="5.28765" height="41.2877" stroke="black" stroke-opacity="0.6" stroke-width="0.287649"/>
<rect x="177.617" y="1" width="2" height="41" fill="black"/>
<rect x="177.473" y="0.856175" width="2.28765" height="41.2877" stroke="black" stroke-opacity="0.6" stroke-width="0.287649"/>
<rect x="181.644" y="1" width="3" height="41" fill="black"/>
<rect x="181.5" y="0.856175" width="3.28765" height="41.2877" stroke="black" stroke-opacity="0.6" stroke-width="0.287649"/>
<rect x="22.2861" y="1" width="6" height="41" fill="black"/>
<rect x="22.1423" y="0.856175" width="6.28765" height="41.2877" stroke="black" stroke-opacity="0.6" stroke-width="0.287649"/>
</svg>
