<svg width="20" height="28" viewBox="0 0 15 21" fill="none" xmlns="http://www.w3.org/2000/svg">
<path d="M7.50139 0C10.5491 0.144126 12.8446 1.50118 14.2348 4.24606C15.1571 6.06707 15.2016 7.97228 14.604 9.90908C14.1765 11.2953 13.549 12.5908 12.8284 13.8426C11.4786 16.1891 9.86165 18.3445 8.09651 20.3914C7.69895 20.853 7.28681 20.8538 6.89087 20.393C4.89578 18.0692 3.07397 15.6231 1.64566 12.9041C0.992234 11.6604 0.416536 10.3795 0.155004 8.99007C-0.360773 6.25006 0.414103 3.90923 2.42782 1.99267C3.61322 0.864765 5.05286 0.246958 6.67388 0.0510113C6.94756 0.0178137 7.22528 0.0161939 7.50139 0ZM7.46414 11.2888C9.49405 11.3325 11.2122 9.65726 11.2616 7.58525C11.311 5.49785 9.64465 3.77644 7.53053 3.73352C5.48362 3.69223 3.76706 5.36587 3.72253 7.44679C3.67799 9.53338 5.34274 11.2427 7.46414 11.2888Z" fill="#1A1A1A"/>
</svg>
