<svg width="76" height="80" viewBox="0 0 58 56" fill="none" xmlns="http://www.w3.org/2000/svg">
<g filter="url(#filter0_d_4_113)">
<g filter="url(#filter1_b_4_113)">
<ellipse cx="28.5217" cy="25" rx="18.5217" ry="18" fill="white" fill-opacity="0.3"/>
</g>
<path fill-rule="evenodd" clip-rule="evenodd" d="M32.6757 18.3072L32.6766 18.9319C34.9721 19.1118 36.4885 20.676 36.4909 23.0748L36.5 30.0963C36.5033 32.7116 34.8602 34.3208 32.2265 34.325L25.7932 34.3333C23.176 34.3366 21.5123 32.6891 21.5091 30.0663L21.5 23.1273C21.4967 20.7126 22.9596 19.1526 25.2551 18.9419L25.2543 18.3172C25.2535 17.9507 25.525 17.675 25.887 17.675C26.2491 17.6742 26.5206 17.949 26.5214 18.3155L26.5222 18.8985L31.4095 18.8919L31.4087 18.3088C31.4078 17.9424 31.6794 17.6675 32.0414 17.6667C32.3952 17.6658 32.6749 17.9407 32.6757 18.3072ZM22.7679 23.3846L35.2247 23.368V23.0764C35.1893 21.2857 34.2908 20.3461 32.6782 20.2062L32.679 20.8476C32.679 21.2057 32.4001 21.4897 32.0463 21.4897C31.6843 21.4906 31.412 21.2074 31.412 20.8492L31.4111 20.1746L26.5239 20.1812L26.5247 20.8551C26.5247 21.214 26.254 21.4972 25.892 21.4972C25.5299 21.4981 25.2576 21.2157 25.2576 20.8567L25.2568 20.2154C23.6524 20.3761 22.7646 21.319 22.7671 23.1256L22.7679 23.3846ZM31.6999 27.1702V27.1794C31.7082 27.5625 32.0208 27.8532 32.4001 27.8449C32.7704 27.8357 33.0657 27.5184 33.0575 27.1353C33.0402 26.7688 32.7432 26.4697 32.3738 26.4706C31.9953 26.4789 31.6991 26.7871 31.6999 27.1702ZM32.3795 30.91C32.0011 30.9017 31.6958 30.586 31.695 30.2029C31.6868 29.8197 31.9904 29.5024 32.3688 29.4932H32.3771C32.7638 29.4932 33.0772 29.8089 33.0772 30.2004C33.0781 30.5919 32.7654 30.9092 32.3795 30.91ZM28.3101 27.1836C28.3266 27.5667 28.64 27.8657 29.0185 27.8491C29.3888 27.8316 29.6841 27.5151 29.6677 27.1319C29.6586 26.7571 29.3542 26.4656 28.9839 26.4664C28.6055 26.4831 28.3093 26.8004 28.3101 27.1836ZM29.0218 30.8725C28.6433 30.8892 28.3307 30.5902 28.3134 30.207C28.3134 29.8239 28.6088 29.5074 28.9872 29.4899C29.3575 29.4891 29.6627 29.7806 29.671 30.1546C29.6882 30.5385 29.392 30.8551 29.0218 30.8725ZM24.9203 27.2127C24.9367 27.5959 25.2502 27.8957 25.6287 27.8782C25.9989 27.8616 26.2943 27.5442 26.277 27.1611C26.2688 26.7863 25.9644 26.4947 25.5933 26.4956C25.2148 26.5122 24.9195 26.8296 24.9203 27.2127ZM25.632 30.8767C25.2535 30.8942 24.9408 30.5943 24.9236 30.2112C24.9227 29.8281 25.2189 29.5107 25.5974 29.4941C25.9677 29.4932 26.2729 29.7848 26.2811 30.1596C26.2984 30.5427 26.003 30.8601 25.632 30.8767Z" fill="black" fill-opacity="0.87"/>
</g>
<defs>
<filter id="filter0_d_4_113" x="0" y="0" width="57.0435" height="56" filterUnits="userSpaceOnUse" color-interpolation-filters="sRGB">
<feFlood flood-opacity="0" result="BackgroundImageFix"/>
<feColorMatrix in="SourceAlpha" type="matrix" values="0 0 0 0 0 0 0 0 0 0 0 0 0 0 0 0 0 0 127 0" result="hardAlpha"/>
<feOffset dy="3"/>
<feGaussianBlur stdDeviation="5"/>
<feComposite in2="hardAlpha" operator="out"/>
<feColorMatrix type="matrix" values="0 0 0 0 0 0 0 0 0 0 0 0 0 0 0 0 0 0 0.5 0"/>
<feBlend mode="normal" in2="BackgroundImageFix" result="effect1_dropShadow_4_113"/>
<feBlend mode="normal" in="SourceGraphic" in2="effect1_dropShadow_4_113" result="shape"/>
</filter>
<filter id="filter1_b_4_113" x="-30" y="-33" width="117.043" height="116" filterUnits="userSpaceOnUse" color-interpolation-filters="sRGB">
<feFlood flood-opacity="0" result="BackgroundImageFix"/>
<feGaussianBlur in="BackgroundImageFix" stdDeviation="20"/>
<feComposite in2="SourceAlpha" operator="in" result="effect1_backgroundBlur_4_113"/>
<feBlend mode="normal" in="SourceGraphic" in2="effect1_backgroundBlur_4_113" result="shape"/>
</filter>
</defs>
</svg>
